<svg xmlns="http://www.w3.org/2000/svg" viewBox="0 0 32 32"><defs><style>.cls-1{fill:#fff;}</style></defs><title>资源 9</title><g id="图层_2" data-name="图层 2"><g id="图层_1-2" data-name="图层 1"><path class="cls-1" d="M25.57,0H16.72A9.53,9.53,0,0,1,22.1,8.26v2.63h.7v3h-3v-3h.8V8.26C20.6,3.7,16.11,0,10.6,0H6.43A6.43,6.43,0,0,0,0,6.43V25.57A6.45,6.45,0,0,0,6.43,32H32V30.38H5.9a2.26,2.26,0,0,1-2.25-2.25V27A2.26,2.26,0,0,1,5.9,24.71h9.17a9.51,9.51,0,0,1-5.26-8.19V13.89H9.1v-3h3v3h-.8v2.63c0,4.21,3.83,7.69,8.76,8.19H32V6.43A6.45,6.45,0,0,0,25.57,0Z"/></g></g></svg>