<svg width="139" height="40" viewBox="0 0 139 40" fill="none" xmlns="http://www.w3.org/2000/svg">
<path d="M61.0952 23.1035C61.0952 23.3701 61.0405 23.6162 60.9312 23.8418C60.8218 24.0605 60.6646 24.2485 60.4595 24.4058C60.2544 24.563 60.0015 24.686 59.7007 24.7749C59.4067 24.8638 59.0684 24.9082 58.6855 24.9082C58.2549 24.9082 57.8584 24.8604 57.4961 24.7646C57.1406 24.6689 56.8364 24.5186 56.5835 24.3135C56.3237 24.1084 56.1221 23.8452 55.9785 23.5239C55.835 23.2026 55.7563 22.8164 55.7427 22.3652H52.9126C52.9126 23.1377 53.0596 23.811 53.3535 24.3853C53.6543 24.9595 54.061 25.4585 54.5737 25.8823C55.1138 26.313 55.7461 26.6411 56.4707 26.8667C57.2021 27.0854 57.9404 27.1948 58.6855 27.1948C59.4443 27.1948 60.145 27.106 60.7876 26.9282C61.4302 26.7437 61.9839 26.4736 62.4487 26.1182C62.9136 25.7695 63.2759 25.3423 63.5356 24.8364C63.8022 24.3237 63.9355 23.7393 63.9355 23.083C63.9355 22.3242 63.7612 21.6543 63.4126 21.0732C63.064 20.4922 62.5957 19.9829 62.0078 19.5454C61.6182 19.2788 61.1909 19.043 60.7261 18.8379C60.2612 18.6328 59.7725 18.4585 59.2598 18.3149C58.7812 18.1851 58.3506 18.0449 57.9678 17.8945C57.5918 17.7441 57.2705 17.5767 57.0039 17.3921C56.7373 17.2144 56.5322 17.0127 56.3887 16.7871C56.252 16.5615 56.1836 16.3086 56.1836 16.0283C56.1836 15.7617 56.2349 15.5156 56.3374 15.29C56.4468 15.0576 56.604 14.856 56.8091 14.6851C57.0142 14.521 57.2637 14.3945 57.5576 14.3057C57.8584 14.21 58.2002 14.1621 58.583 14.1621C59 14.1621 59.3623 14.2202 59.6699 14.3364C59.9844 14.4458 60.2476 14.5996 60.4595 14.7979C60.6646 15.0029 60.8184 15.2456 60.9209 15.5259C61.0303 15.8062 61.0918 16.1138 61.1055 16.4487H63.915C63.915 15.7788 63.7852 15.1636 63.5254 14.603C63.2656 14.0425 62.9033 13.5571 62.4385 13.147C61.9736 12.7437 61.4165 12.4292 60.7671 12.2036C60.1245 11.978 59.4136 11.8652 58.6343 11.8652C57.8823 11.8652 57.1851 11.9644 56.5425 12.1626C55.8999 12.354 55.3428 12.6309 54.8711 12.9932C54.3994 13.3555 54.0303 13.793 53.7637 14.3057C53.4971 14.8184 53.3638 15.3892 53.3638 16.0181C53.3638 16.5649 53.4629 17.0708 53.6611 17.5356C53.8662 18.0005 54.167 18.4243 54.5635 18.8071C54.96 19.1899 55.4692 19.542 56.0913 19.8633C56.7202 20.1846 57.4482 20.458 58.2754 20.6836C58.8086 20.8271 59.2529 20.9844 59.6084 21.1553C59.9707 21.3193 60.2646 21.5005 60.4902 21.6987C60.709 21.9038 60.8628 22.1226 60.9517 22.355C61.0474 22.5874 61.0952 22.8369 61.0952 23.1035Z" fill="black"/>
<path d="M66.8169 15.9053V18.2329H69.9751V24.6826H66.8169V27H75.8608V24.6826H72.8564V15.9053H66.8169ZM69.77 13.0649C69.77 13.2837 69.8076 13.4888 69.8828 13.6802C69.9648 13.8647 70.0776 14.022 70.2212 14.1519C70.3647 14.2886 70.5356 14.3945 70.7339 14.4697C70.939 14.5449 71.1646 14.5825 71.4106 14.5825C71.9165 14.5825 72.3164 14.4424 72.6104 14.1621C72.9111 13.875 73.0615 13.5093 73.0615 13.0649C73.0615 12.6206 72.9111 12.2583 72.6104 11.978C72.3164 11.6909 71.9165 11.5474 71.4106 11.5474C71.1646 11.5474 70.939 11.585 70.7339 11.6602C70.5356 11.7354 70.3647 11.8379 70.2212 11.9678C70.0776 12.1045 69.9648 12.2686 69.8828 12.46C69.8076 12.6445 69.77 12.8462 69.77 13.0649Z" fill="black"/>
<path d="M86.6377 15.7002C85.8926 15.7002 85.2056 15.8813 84.5767 16.2437C83.9478 16.5991 83.4077 17.0913 82.9565 17.7202L82.936 17.4741L82.8232 15.9053H80.1675V27H83.0181V20.335C83.1479 20.0205 83.312 19.7471 83.5103 19.5146C83.7085 19.2822 83.9478 19.0908 84.228 18.9404C84.4604 18.8105 84.7236 18.7148 85.0176 18.6533C85.3184 18.585 85.6533 18.5508 86.0225 18.5508C86.3779 18.5508 86.7505 18.5747 87.1401 18.6226C87.5366 18.6636 87.9229 18.7285 88.2988 18.8174L88.7192 15.9771C88.4937 15.9087 88.1963 15.8472 87.8271 15.7925C87.4648 15.731 87.0684 15.7002 86.6377 15.7002Z" fill="black"/>
<path d="M92.0415 15.9053V18.2329H95.1997V24.6826H92.0415V27H101.085V24.6826H98.0811V15.9053H92.0415ZM94.9946 13.0649C94.9946 13.2837 95.0322 13.4888 95.1074 13.6802C95.1895 13.8647 95.3022 14.022 95.4458 14.1519C95.5894 14.2886 95.7603 14.3945 95.9585 14.4697C96.1636 14.5449 96.3892 14.5825 96.6353 14.5825C97.1411 14.5825 97.541 14.4424 97.835 14.1621C98.1357 13.875 98.2861 13.5093 98.2861 13.0649C98.2861 12.6206 98.1357 12.2583 97.835 11.978C97.541 11.6909 97.1411 11.5474 96.6353 11.5474C96.3892 11.5474 96.1636 11.585 95.9585 11.6602C95.7603 11.7354 95.5894 11.8379 95.4458 11.9678C95.3022 12.1045 95.1895 12.2686 95.1074 12.46C95.0322 12.6445 94.9946 12.8462 94.9946 13.0649Z" fill="black"/>
<path d="M111.052 23.9546C111.052 24.1255 111.008 24.2827 110.919 24.4263C110.837 24.5698 110.71 24.6963 110.54 24.8057C110.362 24.915 110.133 25.0039 109.853 25.0723C109.579 25.1338 109.258 25.1646 108.889 25.1646C108.581 25.1646 108.28 25.1338 107.986 25.0723C107.699 25.0107 107.443 24.9116 107.217 24.7749C106.992 24.645 106.807 24.4741 106.664 24.2622C106.52 24.0435 106.438 23.7837 106.417 23.4829H103.7C103.7 23.9341 103.81 24.3853 104.028 24.8364C104.254 25.2808 104.582 25.6772 105.013 26.0259C105.443 26.3813 105.977 26.6685 106.612 26.8872C107.255 27.106 107.993 27.2153 108.827 27.2153C109.586 27.2153 110.273 27.1333 110.888 26.9692C111.503 26.7983 112.03 26.5625 112.467 26.2617C112.898 25.9609 113.229 25.6055 113.462 25.1953C113.701 24.7783 113.821 24.3237 113.821 23.8315C113.821 23.2983 113.701 22.8403 113.462 22.4575C113.229 22.0679 112.905 21.7363 112.488 21.4629C112.071 21.1963 111.575 20.9775 111.001 20.8066C110.427 20.6357 109.805 20.4956 109.135 20.3862C108.67 20.3179 108.287 20.2393 107.986 20.1504C107.686 20.0547 107.45 19.9487 107.279 19.8325C107.101 19.7231 106.978 19.6001 106.91 19.4634C106.841 19.3198 106.807 19.166 106.807 19.002C106.807 18.8379 106.845 18.6841 106.92 18.5405C107.002 18.3901 107.118 18.2603 107.269 18.1509C107.433 18.0278 107.645 17.9321 107.904 17.8638C108.164 17.7954 108.468 17.7612 108.817 17.7612C109.227 17.7612 109.576 17.8125 109.863 17.915C110.157 18.0176 110.389 18.1543 110.56 18.3252C110.683 18.4551 110.775 18.6021 110.837 18.7661C110.898 18.9233 110.929 19.0942 110.929 19.2788H113.78C113.78 18.7661 113.667 18.291 113.441 17.8535C113.216 17.416 112.891 17.0366 112.467 16.7153C112.037 16.4009 111.514 16.1548 110.898 15.9771C110.283 15.7925 109.589 15.7002 108.817 15.7002C108.079 15.7002 107.416 15.7925 106.828 15.9771C106.24 16.1616 105.741 16.4111 105.331 16.7256C104.92 17.04 104.606 17.4058 104.387 17.8228C104.168 18.2397 104.059 18.6772 104.059 19.1353C104.059 19.6069 104.165 20.0239 104.377 20.3862C104.596 20.7485 104.896 21.0664 105.279 21.3398C105.662 21.6201 106.12 21.8594 106.653 22.0576C107.193 22.249 107.788 22.4097 108.438 22.5396C108.95 22.6353 109.374 22.731 109.709 22.8267C110.044 22.9224 110.314 23.0249 110.519 23.1343C110.717 23.2505 110.854 23.3735 110.929 23.5034C111.011 23.6333 111.052 23.7837 111.052 23.9546Z" fill="black"/>
<path d="M121.737 13.188H118.886V15.9053H116.354V18.0073H118.886V23.0522C118.886 23.7837 118.982 24.4126 119.173 24.939C119.365 25.4585 119.638 25.8857 119.994 26.2207C120.342 26.5625 120.763 26.8154 121.255 26.9795C121.754 27.1367 122.308 27.2153 122.916 27.2153C123.23 27.2153 123.548 27.1982 123.87 27.1641C124.198 27.1367 124.512 27.0957 124.813 27.041C125.114 26.9863 125.397 26.918 125.664 26.8359C125.931 26.7471 126.163 26.6445 126.361 26.5283L126.084 24.5698C125.955 24.604 125.797 24.6382 125.613 24.6724C125.435 24.7065 125.244 24.7373 125.039 24.7646C124.827 24.7988 124.604 24.8262 124.372 24.8467C124.146 24.8672 123.924 24.8774 123.706 24.8774C123.405 24.8774 123.131 24.8433 122.885 24.7749C122.646 24.7065 122.441 24.5903 122.27 24.4263C122.099 24.269 121.966 24.0571 121.87 23.7905C121.781 23.5171 121.737 23.1787 121.737 22.7754V18.0073H125.879V15.9053H121.737V13.188Z" fill="black"/>
<path d="M136.051 27H138.943V26.8257C138.799 26.5454 138.69 26.2104 138.615 25.8208C138.54 25.4312 138.502 24.939 138.502 24.3442V19.5864C138.502 18.9438 138.382 18.3799 138.143 17.8945C137.904 17.4023 137.572 16.9956 137.148 16.6743C136.725 16.353 136.222 16.1104 135.641 15.9463C135.067 15.7822 134.445 15.7002 133.775 15.7002C133.03 15.7002 132.367 15.7959 131.786 15.9873C131.211 16.1719 130.726 16.4248 130.33 16.7461C129.926 17.0674 129.619 17.4399 129.407 17.8638C129.202 18.2876 129.099 18.7354 129.099 19.207H131.95C131.95 19.0088 131.977 18.8276 132.032 18.6636C132.093 18.4995 132.186 18.3594 132.309 18.2432C132.445 18.1133 132.623 18.0142 132.842 17.9458C133.061 17.8706 133.32 17.833 133.621 17.833C133.963 17.833 134.26 17.8774 134.513 17.9663C134.773 18.0483 134.988 18.168 135.159 18.3252C135.323 18.4756 135.446 18.6567 135.528 18.8687C135.61 19.0737 135.651 19.3062 135.651 19.5659V20.2222H134.062C133.242 20.2222 132.514 20.2974 131.878 20.4478C131.249 20.5913 130.719 20.8032 130.289 21.0835C129.81 21.3911 129.451 21.7842 129.212 22.2627C128.973 22.7344 128.853 23.2778 128.853 23.8931C128.853 24.3716 128.949 24.8159 129.14 25.2261C129.332 25.6294 129.598 25.978 129.94 26.272C130.282 26.5659 130.688 26.7949 131.16 26.959C131.639 27.123 132.162 27.2051 132.729 27.2051C133.078 27.2051 133.402 27.1709 133.703 27.1025C134.004 27.041 134.281 26.9521 134.534 26.8359C134.78 26.7266 135.005 26.5967 135.21 26.4463C135.416 26.2959 135.597 26.1353 135.754 25.9644C135.788 26.1626 135.829 26.3506 135.877 26.5283C135.925 26.7061 135.983 26.8633 136.051 27ZM133.334 25.0005C133.067 25.0005 132.832 24.9697 132.626 24.9082C132.428 24.8398 132.261 24.751 132.124 24.6416C131.987 24.5254 131.881 24.3853 131.806 24.2212C131.738 24.0503 131.704 23.8657 131.704 23.6675C131.704 23.4146 131.751 23.1821 131.847 22.9702C131.943 22.7515 132.09 22.5635 132.288 22.4062C132.486 22.2559 132.743 22.1396 133.057 22.0576C133.372 21.9688 133.751 21.9243 134.195 21.9243H135.651V23.8315C135.569 23.9751 135.457 24.1187 135.313 24.2622C135.169 24.3989 134.999 24.522 134.8 24.6313C134.602 24.7407 134.38 24.8296 134.134 24.8979C133.888 24.9663 133.621 25.0005 133.334 25.0005Z" fill="black"/>
<path d="M2.73742 25.4645C1.75419 24.9363 1.75419 23.505 2.73742 22.9769L17.4122 15.0937C19.0313 14.2239 20.9687 14.2239 22.5878 15.0937L37.2626 22.9769C38.2458 23.505 38.2458 24.9363 37.2626 25.4645L22.5878 33.3477C20.9687 34.2174 19.0313 34.2174 17.4122 33.3477L2.73742 25.4645Z" fill="#3448FF"/>
<path d="M2.73742 17.0231C1.75419 16.495 1.75419 15.0637 2.73742 14.5355L17.4122 6.65231C19.0313 5.78256 20.9687 5.78256 22.5878 6.65231L37.2626 14.5355C38.2458 15.0637 38.2458 16.495 37.2626 17.0231L22.5878 24.9063C20.9687 25.7761 19.0313 25.7761 17.4122 24.9063L2.73742 17.0231Z" fill="#52B9F3"/>
<path fill-rule="evenodd" clip-rule="evenodd" d="M31.7211 20.0003L22.5878 24.9063C20.9687 25.7761 19.0313 25.7761 17.4122 24.9063L8.27892 20.0003L17.4122 15.0937C19.0313 14.2239 20.9687 14.2239 22.5878 15.0937L31.7211 20.0003Z" fill="white"/>
</svg>
